<svg xmlns="http://www.w3.org/2000/svg" version="1.1" xmlns:xlink="http://www.w3.org/1999/xlink" viewBox="0 0 200 200"><rect width="200" height="200" fill="url('#gradient')"></rect><defs><linearGradient id="gradient" gradientTransform="rotate(335 0.5 0.5)"><stop offset="0%" stop-color="#efe336"></stop><stop offset="100%" stop-color="#ff2e0e"></stop></linearGradient></defs><g><g fill="#000000" transform="matrix(4.653012841620019,0,0,4.653012841620019,26.01377559283631,132.82766903304804)" stroke="#5b8d84" stroke-width="0.2"><path d="M5.75 0L1.07 0L1.07-14.22L5.65-14.22Q7.54-14.22 9.04-13.36Q10.55-12.51 11.39-10.95Q12.24-9.39 12.25-7.46L12.25-7.46L12.25-6.81Q12.25-4.85 11.42-3.31Q10.60-1.76 9.10-0.88Q7.60-0.01 5.75 0L5.75 0ZM5.65-11.57L4.50-11.57L4.50-2.64L5.69-2.64Q7.17-2.64 7.96-3.69Q8.75-4.74 8.75-6.81L8.75-6.81L8.75-7.42Q8.75-9.48 7.96-10.53Q7.17-11.57 5.65-11.57L5.65-11.57ZM14.70-3.19L14.70-3.19Q15.48-3.19 16.00-2.73Q16.51-2.27 16.51-1.54Q16.51-0.82 16.00-0.36Q15.48 0.11 14.70 0.11L14.70 0.11Q13.91 0.11 13.39-0.36Q12.88-0.83 12.88-1.54Q12.88-2.26 13.39-2.72Q13.91-3.19 14.70-3.19ZM30.73-14.22L30.73 0L27.32 0L22.29-8.85L22.29 0L18.86 0L18.86-14.22L22.29-14.22L27.31-5.37L27.31-14.22L30.73-14.22Z"></path></g></g></svg>